<svg xmlns="http://www.w3.org/2000/svg" width="28" height="28" viewBox="0 0 28 28">
  <g id="circle-user" transform="translate(0.311 0.311)">
    <rect id="Rectangle_2" data-name="Rectangle 2" width="28" height="28" transform="translate(-0.311 -0.311)" fill="none"/>
    <g id="Group_2" data-name="Group 2" transform="translate(-0.168 -0.168)">
      <g id="Group_1" data-name="Group 1">
        <path id="Path_1" data-name="Path 1" d="M13.857,0A13.857,13.857,0,1,0,27.714,13.857,13.856,13.856,0,0,0,13.857,0Zm0,6.928a3.9,3.9,0,1,1-3.9,3.9A3.9,3.9,0,0,1,13.857,6.928Zm0,17.321A10.365,10.365,0,0,1,6.512,21.2a6.024,6.024,0,0,1,5.613-3.882h3.464A6.019,6.019,0,0,1,21.2,21.2,10.361,10.361,0,0,1,13.857,24.25Z" fill="#e3f4ff"/>
      </g>
    </g>
  </g>
</svg>
