<svg id="magnifying-glass" xmlns="http://www.w3.org/2000/svg" width="27.992" height="28" viewBox="0 0 27.992 28">
  <rect id="Rectangle_3" data-name="Rectangle 3" width="27.809" height="27.809" transform="translate(0.095 0.095)" fill="none"/>
  <g id="Group_4" data-name="Group 4">
    <g id="Group_3" data-name="Group 3">
      <path id="Path_2" data-name="Path 2" d="M27.568,25.758,20.24,18.43A11.036,11.036,0,0,0,22.7,11.375a11.4,11.4,0,1,0-4.32,8.912l7.328,7.328a1.512,1.512,0,0,0,.979.385,1.313,1.313,0,0,0,.928-.385A1.278,1.278,0,0,0,27.568,25.758ZM2.625,11.375a8.75,8.75,0,1,1,8.75,8.75A8.76,8.76,0,0,1,2.625,11.375Z" fill="#e3f4ff"/>
    </g>
  </g>
</svg>
