<svg xmlns="http://www.w3.org/2000/svg" width="15.909" height="12.727" viewBox="0 0 15.909 12.727">
  <g id="plane-arrival" transform="translate(0 0)">
    <g id="Group_4" data-name="Group 4" transform="translate(0 0)">
      <path id="Path_5" data-name="Path 5" d="M1.112,5.108,3.319,7.1a1.3,1.3,0,0,0,.634.326L11.1,9.37a3.739,3.739,0,0,0,1.991.031c.736-.205,1.078-.525,1.175-.885s-.043-.814-.581-1.367a3.838,3.838,0,0,0-1.762-.994L9.5,5.5,7.027.751A.353.353,0,0,0,6.738.475L5.1.014a.4.4,0,0,0-.49.407L5.8,4.5,3.234,3.811,2.573,2.124A.414.414,0,0,0,2.3,1.878l-.988-.27A.411.411,0,0,0,.8,2L.8,4.531a.841.841,0,0,0,.311.577Zm14,6.028H.773A.786.786,0,0,0,0,11.909a.826.826,0,0,0,.773.818H15.091a.8.8,0,1,0,.022-1.591Z" transform="translate(0 0)" fill="#979dad"/>
    </g>
  </g>
</svg>
