<svg id="users" xmlns="http://www.w3.org/2000/svg" width="17.054" height="13.643" viewBox="0 0 17.054 13.643">
  <g id="Group_5" data-name="Group 5" transform="translate(0)">
    <path id="Path_6" data-name="Path 6" d="M8.525,8.527A2.771,2.771,0,1,0,5.777,5.756,2.751,2.751,0,0,0,8.525,8.527Zm1.332.853H7.2a3.675,3.675,0,0,0-3.787,3.552.734.734,0,0,0,.757.711h8.719a.734.734,0,0,0,.757-.711A3.675,3.675,0,0,0,9.857,9.38Zm3.787-5.116a2.132,2.132,0,1,0-2.132-2.132A2.132,2.132,0,0,0,13.643,4.264ZM4.9,5.756a3.548,3.548,0,0,1,.043-.424,1.93,1.93,0,0,0-.949-.216H2.347A2.42,2.42,0,0,0,0,7.6a.485.485,0,0,0,.47.5H5.786A3.589,3.589,0,0,1,4.9,5.756ZM3.411,4.264A2.132,2.132,0,1,0,1.279,2.132,2.132,2.132,0,0,0,3.411,4.264Zm11.3.853H13.059a2.222,2.222,0,0,0-.956.22,3.651,3.651,0,0,1,.043.42A3.592,3.592,0,0,1,11.262,8.1h5.321a.485.485,0,0,0,.471-.5,2.42,2.42,0,0,0-2.348-2.486Z" transform="translate(0)" fill="#979dad"/>
  </g>
</svg>
